/* XPM */
static char *a928a4d085b94f34c5d8d64b98a04428SDdFa9oaahUU2cDk[] = {
/* columns rows colors chars-per-pixel */
"64 57 254 2 ",
"   c #090609",
".  c #140B07",
"X  c #090A16",
"o  c #181619",
"O  c #141011",
"+  c #261B18",
"@  c #29231C",
"#  c #34271C",
"$  c #1D1B24",
"%  c #241D24",
"&  c #292627",
"*  c #342B29",
"=  c #393229",
"-  c #342E35",
";  c #393638",
":  c #2B2B33",
">  c #1D2331",
",  c #453937",
"<  c #443828",
"1  c #3D423C",
"2  c #494538",
"3  c #393945",
"4  c #2F344A",
"5  c #433B43",
"6  c #3C6663",
"7  c #474546",
"8  c #554E48",
"9  c #595557",
"0  c #55524D",
"q  c #675A56",
"w  c #586459",
"e  c #75665A",
"r  c #6E6958",
"t  c #535B6D",
"y  c #587C76",
"u  c #506F6F",
"i  c #686667",
"p  c #746A68",
"a  c #7A746C",
"s  c #676975",
"d  c #787678",
"f  c #6E7376",
"g  c #675A67",
"h  c #887868",
"j  c #887A79",
"k  c #876F69",
"l  c #84715B",
"z  c #5A8475",
"x  c #69877A",
"c  c #768777",
"v  c #6D8B75",
"b  c #8A8778",
"n  c #948576",
"m  c #938A74",
"M  c #A69277",
"N  c #5A778E",
"B  c #6A798C",
"V  c #797A86",
"C  c #687B9B",
"Z  c #787E97",
"A  c #6B6D82",
"S  c #5A79B4",
"D  c #5973AA",
"F  c #667AB6",
"G  c #697CA9",
"H  c #5B79C6",
"J  c #697EC1",
"K  c #867D80",
"L  c #568888",
"P  c #688889",
"I  c #758989",
"U  c #78978A",
"Y  c #7C899C",
"T  c #789A97",
"R  c #689490",
"E  c #78A692",
"W  c #5E82B6",
"Q  c #6A84A9",
"!  c #7889A8",
"~  c #7896A8",
"^  c #6A86B8",
"/  c #758AB7",
"(  c #7C94BB",
")  c #7994B7",
"_  c #6992AD",
"`  c #6B88C5",
"'  c #758BC5",
"]  c #7996C6",
"[  c #7A9CD2",
"{  c #7DA0CE",
"}  c #89898A",
"|  c #948988",
" . c #979487",
".. c #84889A",
"X. c #899897",
"o. c #979798",
"O. c #879790",
"+. c #A49688",
"@. c #A59A99",
"#. c #A59087",
"$. c #8FA594",
"%. c #AAA597",
"&. c #BAAB9C",
"*. c #AAAC94",
"=. c #838EA5",
"-. c #8896A9",
";. c #9499A7",
":. c #8395B4",
">. c #8C9CB4",
",. c #839BBB",
"<. c #8B9CBC",
"1. c #8597B7",
"2. c #939DB8",
"3. c #848EB6",
"4. c #A89BA3",
"5. c #A99AAF",
"6. c #99A3A8",
"7. c #8CA3BB",
"8. c #8AA3B7",
"9. c #94A3B4",
"0. c #92A3BC",
"q. c #9BABBC",
"w. c #99A8B8",
"e. c #93AEB3",
"r. c #A8A7A9",
"t. c #B5ADA8",
"y. c #B9B5A9",
"u. c #A6AAB6",
"i. c #B4ABB8",
"p. c #A9B3BA",
"a. c #BDBCBC",
"s. c #B6B7B7",
"d. c #ADB1AF",
"f. c #C6BAAA",
"g. c #C6BBB8",
"h. c #D1BEB7",
"j. c #C8B1AC",
"k. c #C5B693",
"l. c #BAC6BA",
"z. c #BACAB6",
"x. c #CAC3AB",
"c. c #CBC4BB",
"v. c #C8C7B9",
"b. c #D6C9B9",
"n. c #D7D3BC",
"m. c #E1D2BD",
"M. c #8395C4",
"N. c #869AC6",
"B. c #849CD2",
"V. c #868DC5",
"C. c #8CA3C3",
"Z. c #89A5C7",
"A. c #93A4C3",
"S. c #94AAC3",
"D. c #98AAC8",
"F. c #9CB3C9",
"G. c #8BA6D3",
"H. c #94AAD5",
"J. c #9CB3D4",
"K. c #88B3C3",
"L. c #A3ACC8",
"P. c #A9B6C6",
"I. c #B6B9C7",
"U. c #A6B9D5",
"Y. c #B7BDD4",
"T. c #B3A4C1",
"R. c #9BB7E3",
"E. c #A8B9E5",
"W. c #AFBBEC",
"Q. c #C5BEC3",
"!. c #D5BFC1",
"~. c #B9C5C8",
"^. c #AAC7D8",
"/. c #BAC7D8",
"(. c #B9D7DB",
"). c #B0CECD",
"_. c #ABC5E5",
"`. c #B9C9E5",
"'. c #BAD6E9",
"]. c #B7CBF7",
"[. c #BED5FC",
"{. c #BBD7F6",
"}. c #ACC9F0",
"|. c #BFE2E4",
" X c #C7C7C8",
".X c #D2CDCC",
"XX c #D7C9C5",
"oX c #C9D5C8",
"OX c #D4D3CD",
"+X c #D9D6C7",
"@X c #CCCCD3",
"#X c #C3CDDC",
"$X c #C7C9D6",
"%X c #D5CDD5",
"&X c #CCD3D5",
"*X c #CCD4DC",
"=X c #C8D9D9",
"-X c #D4D2D4",
";X c #DDDBD4",
":X c #D3D3DB",
">X c #D4DCDC",
",X c #DBDCDB",
"<X c #D8D7D7",
"1X c #E4D9CA",
"2X c #E5DBD7",
"3X c #E2CFCA",
"4X c #D8E6D9",
"5X c #D0E3CF",
"6X c #E6E2CC",
"7X c #E4E3DD",
"8X c #E9E4D7",
"9X c #F2E8D7",
"0X c #C6CDE7",
"qX c #C4D3E4",
"wX c #CCD4E3",
"eX c #CDDCEB",
"rX c #C7D8E9",
"tX c #D3DBE4",
"yX c #DCDCE4",
"uX c #D3DCEC",
"iX c #D6D7E8",
"pX c #C3D5F4",
"aX c #CBDBF4",
"sX c #C4DCFD",
"dX c #CBDCFC",
"fX c #C6D6F8",
"gX c #D4DDF2",
"hX c #D5DCF7",
"jX c #C2CDF5",
"kX c #E3DDE2",
"lX c #E2DFF9",
"zX c #CBE4E9",
"xX c #DCE3EB",
"cX c #D8E5E7",
"vX c #CDE3FD",
"bX c #CAE4F9",
"nX c #D3E2F4",
"mX c #DCE4F3",
"MX c #DBEAF4",
"NX c #D3E4FC",
"BX c #DBE5FB",
"VX c #D4E9FE",
"CX c #DBEBFD",
"ZX c #D4EAF6",
"AX c #DCF1FC",
"SX c #E3E2E4",
"DX c #E3E4EC",
"FX c #E8E8E8",
"GX c #E9F1E8",
"HX c #EAEDF3",
"JX c #E3EAF6",
"KX c #E7F2FA",
"LX c #F4F5F6",
"PX c #F5EDE5",
/* pixels */
"XX} t.t..Xg.q g.o.<XyX0.( <.3.;.;X8Xn.s.*X:./ ^ / `.nX6.;.,XOX6X7X7X@.6.Y.pX/ ^ ^ ) #X8 j.f.-X=.Q Q Q 8.uX2X%.m.#.n.8X1Xn | ,XkX",
".Xg.f.t.r.v.0 c.%XkXiX>.) :.D.u.SXn. .v.yX0.( / ! >.wXmXiX-Xa c.*.;X7XSXgX0.Q ^ _ <.yXy.n f.4X6.! Q C ! *XFXXXb.e x.n.8X+X+X2X;.",
" XO.b +Xv.a.s.I.V iXu.2.>.F.wXHX6Xm x.M SXxXbX<.-.-.u.@Xf OXl.n.6X9X8XPX,X;.:.:.0.tX7Xb q m m.7XzX1.~ ;.r. Xh n.x.+X6X+Xy.9X2X| ",
"a. Xv.v.%.< 7 s.Q.0X$XhXNXaXrXxX7X+X5X+XSXJXCXNXVXnXDX,X.Xv.8 ; v.+X9X8X2XyXmXeXeXLX7X+Xb.n.6XPXKXrXZXzX&Xv.v.x.2 a z.n.6X1XXX4X",
"0 p.d.= @ O X ; I.i d.cXhXF.2.P.=XU v O.zXp.w.U.'./.~.a.XX2 O o * r b.c.K yXBXY.P.~.4Xz.v *.8X~.u.w.p.~.w 0 v.b + O * 2 v.&.r x.",
"~.oXa o     O 3 .X X>Xd.>.:.>./.|.v y I =X*X>.=.=.w.yXFX9X .@ . O = 3X8X2XiX9.-.T 6.=Xv w v 5X5X;...-.o.v.1X9X+.+   . @ v.6Xx.$.",
"4X Xs.-     $ | %Xr.cX*XA.2.2.p.5XE v U 4X~.;.-.-.;.SX9XPXb.# O O = XXPXFXxX0.2.-.u.5Xv z c v.4X;.;.o.r.4X+X9Xb.@ . . = m.8X6X6X",
".X.X Xu.; $ ;  X%XkXcXMXNXBXhXiX4Xz. .+X4X>XwXgXhXmXkX2X6Xf.< + = 8 8X9X XiXrXaX'.4XGX*.m *.v.v.s.p.wXiXXXXXm.f.< # < y.f.8X;X;X",
"V i.i I.s.6.i..Xd %Xp.9.F.dX/.V b.M x.+X+Xr.MXCX`./.~.OXh.1X&.k XX1X9X7XcXtXgXNXnXmXGX1Xn.n.6X-XxXxX#X#X@X+Xf.6Xn.x.b.1Xm y.r.O.",
"Y.A P.~.V ~.9 .X$XiX).>.C.C.w.@XXXe e n 2XtXNXF.7.8.p.&X} 1X3Xb.PXLX8X6.uXu.<.N.A.mX6Xb l h +XFXxXw.q.;.u. Xh +Xn.n.6X1Xx.i s.X.",
"hXE.>.gX(.P.u /.w.gXrXF.N.<.<.2.%Xh.g.!.DXp.D.Z.( F.bXcX&X,Xp 1XPXLXI.cXqXD.1.( ) q.oXx.M b.kXP.w.2.>.q.tX&X.X;Xm +XGX5Xr. XuX>.",
"W.F Z nXrX8.'.pX! 3.VXdXF.A.0.u.Q.g 4.i iXL.<.,.D.{.ZXF.q.HX,XFXHXmX6.w.VXNXJ.<.:.;.oXq &.p .Xu.;.9.S.NXBX6.r.DX=X).cXFXr.-.0.aX",
"F D Z rXJ./ pXsX/ / M.fXCXeXp.>Xa.@ * ;  X:X6.I.bXCXP.<.>.JXBXw.p.nXq.6.q.bXNXBXp.r.s.= # < j..Xu.I./.bXA.>.>.JXrX-.6.wXw.Y >.{.",
"F G :.pX] / M.{.N.G 3.F.rXp.OX X0 o + ; 8 @.2X2X6.nXL.2.F.BXP.0.e.ZXF.8.8.P.mX@X<X<Xq # . + 8 e XX@XI qX-.Y =.aX0.Y -.uXP.;.! >.",
"`.! /.sXM.F / pXaX>.'.P.4Xv. .h.j.& * , h.b.%.1X4X=XMXu.w.BXS.8.F.zXnXp./.I.cXXX&.b.c.= # * &.j.M 1X.X,X&X-.>.dX1.! ! nXMX6.6.d.",
"rX=.'.vX' F ] aXlXu.xXoX$.+Xb.j !.9 T.g XX#.k.6X5XcXzXI.HXMXq.8.q.nXwX#XJXcX4X;Xb.#.XX0 @.r b.M &.8X;X4X=X6.cXBX1.! >.eX>X<X=X$.",
"I.#XyXgX( / ,.hXHX8XOXO.c $.oXn >X*XiXiX2XM f.t.E U X.oXFXHXp.9.q.5Xb 5XzX$.v $.+X#.2X:XtX&X2Xn +.v.v z v ).4XGX2.3.=.0X| +X&Xf ",
" X<X.XlXD.<./.mX2X9Xl.c v $.<XSXMX0.V.L.kXXX6Xs.E v $.n.%.7XDXp.p.7Xn.k.5XE x U 7X2XlXI.q.w.g.m.6Xv.z u y v.m 2XiX;.u.xXv.*.v.a ",
"3X!.k XX@X/.>XOXn b.+XX.T ).xXKXnX0.M.A.yXI 5XcXe.$.$.n.M 3X8XOX;X9XM k.5X$.T T xXHXJXA.1.>. Xp &X4XR x b z.m 3X3XQ.XX+Xm x.n.b ",
"!.k k s.; & ; t.n n @.$X'.'.D.bXZX:.V.H.MXqX~.zX5X4X5XM m b.e , 8 f.M M x.6XzXbXP.uX0XA.,.0.MX=X~.zXrXcX+Xm l x., & = *.r e m n.",
"2X XXXt.@   $ 1  Xg.yXqXF.{ ' B.sXD.N.N.AXbX0.8.F.KXLX4X8X8X8 # = < n.9XFXHXqXA.D.S.hX0.:.8.ZXbX8.,.9.KXLX4X8XXX+   . ; x.v.m.6X",
"hXhX$X} $ X X 3 @XgXNXU.'.( ' [ vXBXN.D.VXU.8.C.Z.VXAXAXMX,X8 = = 8 ;XPXKXKXZXD.1.A.pXNX8.8.VXK./ / <.nXKXcXcX X%   X ; z.4XGXGX",
"F / 3.I.4 - 4 ^.S.<.Z.{.bX_.] 7.bX#XP.`.MX0.C.H.vXVXH.Z.P.=Xp 8 q  X Xq.P.bXAXfXA.D.CXeXF.rXZX<.( Z.dXbXe.K.q./.5 @ , i.;.Y ~ '.",
"S S G aX@Xa. XyXA.) [ { K.bX'.S.).s #XJXKXP.J.{.vXG.G.Z.A.tX .f..XkXI.2.7.H.J.vXBXU.=Xt =XMXKXw.D.vXsXH.] _ 8.zXQ.j.XX3X;.! _ ^ ",
"D F <.0Xr.a k -X#XC.] ' ( U.rXqX&Xi :XDXGX4XBXBXJ.N.] G.F.KXb.m n 9X:XL.N.M.,.U.mXtX>Xw >X*XDXiXnXzXH.( ' Z.q.cXXXh k 1X%X;.! Q ",
"^ }.dX0XV y.a <X#XpXH.G.<.A.(.f %XQ.@XGX4Xb xXgXD.C.H.dXKXMX%.*.*.2Xu.hXE.H.7.F.:Xd ,Xa.-XyX2Xa <X~.7.Z.G.bXCX4X .f.m oXi.0X_.( ",
"W.sXsXdX`.P.l.ZXbX{.[.[.NXBXuX%X%Xi w d.XX;XDXkXnXZXsXsXVXAX4X5X5X5XzXJXNXNXAXZXyX<XQ.5 : d XX2X;X=XNXCXbX{.ZXcXz.(.z.cXwXBXvX'.",
"^ / Z.{.N 6 R ^.K.) ] B.aX$Xf %X4.: o ; 8 i.4.} DXaXD.H.F.|.E E E ).^.F.U.F.zX=Xf %XV o X . , y.q c nXpXC.<.e.=XU z U (.8.~ ) ) ",
"F G _.^.u 6 6 _ R.W W W ,.0.I.%Xg o X $ $ i s.Q.P.w.7.) J.|.E z L E '.J.3.A.q.l.~..X5 o X   O p f.-XL.,.,.) (.4Xz 6 z R ^._ D ^ ",
"F / 8.(.L u z ^.{ ` W [ {.'.s a.s.& $ $ ; s.V d tXbXH.J.K.).e.E $.).^.F.N.D.sXzXo.SX X+   . ; s.i .XNXD.,.<.q.=Xv z z ).e.) / ' ",
"jXfXhXcX5Xz.z.cX/.dX[.[.'.bX=XSX;X0 - 7 I.kXyXcXZXbXvXVXZXl.*.n.5XGXcXMXU.{.bXvXxXSX<X7 : ; c.;XyXJXbXvXvXvXDXLXn.5XoX4X=XnXfXdX",
"B.jX0XSX$.y.b ~...jX[.{ ) 8.nXcXFX.X:X@X:Xr.DXeXe.Z.K.vXAXs.%.a c *.d.zXvXG.N.D.BXp.,X X<X,X,Xd @X~.8.) Z.dXJXSXm k.n c.V #XfX,.",
"F F 0X-Xb h p 0XW.M.[ ` ^ Z.CXmXDXp.tX$X,X XiXCXK.] ) Z.q.xX;Xj h *.r.7.{ [ ) G.BXBX,Xi ,XkXHXuXKXnX( / ^ [ L.kXj.k k 3X$X-.] ^ ",
"S F ! *Xx.y.g.iXA.^ W W [ [.].D.gXs.nXMX*Xd.L.dXsXK.] ) 9.mXg.g.c.v.;.:.[ G.Z.vXCXL.wXg yXHXmXP.uXCXC.{ / Q >.gX!.j.h.3X6.Y ^ ^ ",
"J G / #X1 & 3 T.1./ / ) _.{.M.M.BXqXS.P.nX^.1.N.sXsXU.8.q.@Xs ; 3 o.6.w.D.Z.'.bXG.C.AX#XP.BX`.>.<.C.pXpXF.C.-.$X5 + , s.u.=.>.^.",
"fXA.qX).&   X 4 Y.NXrXbXvX,./ Z.sX`.<.C.pX_.N.( C.NXCXuXKXSX- O O 3 &XDXmXKXVXS.Z.G.VXvX2.A.`.A.3.! >.CXZXMXJX@X%     -  X X%X-X",
"DX$X$Xs O . o 5 %X:XcXMX|.{ _ { VXJ./ ] E.bX] ( H.AX=X2X2XXX, O o , 3X8XPXHXxXq.,.G.pXS.M.M.1.fXN.1.8.bXcX+X+Xx.@   o , g.XXXXb.",
"OXj p Q.3 > 4 i.j g c ).|.^.7.{.vXH.` ` J.{.A.C.'.zX&Xb h +.j 5 5 j M h b s.MX=XS.].bXC.M.M.hXaXA.bX{.zX5Xb h f., % ; 4.q e k h.",
".Xg.s Q.-.Y.Q.iXa +.l.T L _ '.AXKXC.' ] S.p.zX|._ R $.z.h +.|  XQ.o.y.m oX$.R U zXMXZXq.( N.gXo./.'.L z z.z.e 3X%Xa. X,Xp x. Xa ",
"d g.d hX`./ 3.uXg.d ~.L 6 L '.I.wXD.M.M.P.l.>X5XL z R (. .&.;.9.9.wXv.m &XR u R &Xl.4Xq.7.0.2X1XoXT 6 6 z l.b 3X$X=.;.:X3Xv.+Xy ",
"f /.wXpX( S _ `.V  Xq.N u R $Xj t.:XJXhXa.#.j oXE L _ |.zXp.2.,.3.U.I &XbXR L R oXm y.&X/.$X2Xh m y.y u P #XiXiX3.C ! zX*X,X).y ",
"`.8.'.].` S ^ {.w.qX'.N ~ zX XK t.t.@Xi.@.#.n  X(.e.{ |.AX(.D.] ] G.>.rX|.~ F.zXn.m y.p r.g c.h M 1X=X(./.>.aXdX^ W _ vXnX=X|.p.",
"}.^ {.}.Q S Q bX`./ ! `.qX~.d e t.a - * #.j.j | ~.ZX_.D.C.sXR.B.[ H.S.8.>.U.zX$Xj #.s.9 % & g.h.n g.I.0./.! G fX^ S ^ [.pX2.S.~ ",
"D D ^ }.' D ^ ].H.^ F M.qXs i.p.0 - O + * g I.I.B /.A.1.N.pXfXV.M.R.D.-.:.A.rXs  XQ.9 & .   5 9 Q. XA /.1.G / [.M.F ^ [.,.C G ! ",
"H S S E.}.G ! sX' F F ].NX^.-.! ).6.* + g I.2.2.`.NX`.<.:.U.fXF.C.D.U.! 2.hXqX^.2.-.$Xd * 5 I./.:.:./.{.( Q ) fXfX! :.{.Q Q ! jX",
"}.F / jX_.2.qXdXF ' B.[.}.] Q _ 8.s.g | o./.( ^ / J.0X0XA.>.L.nXaX-.I.w.0XfXJ.N./ >.@X4.h.OXDXq./ ^ ( ^.{.7.>.aX0X/.wXhX:.! L.aX",
"D.0XW.0Xt ~.uXgX<.E.].M.J H F G B Q.h.!.XXp.N.` ` ( ~ nX/.I./.HXyXV Y.iXhXA.[ ` / ,.@X@.+.h.2X2.( ^ ^ / `.vX0X$Xp Q.kXJX$XwXhXZ ",
"A Y.Y.0X-.=XcXwXU.t ^.^ ^ ` ' J.Z i.j j r.rX].[ ] ( 9.rXs ~.~.FXHX%X,XA wXD.' [ G.vXkX+.l j kXgXpXZ./ ,.9./.s  XQ.%XSXkXtXiXiX=.",
"Z Y...$XI. X~.d.i p...! E.[.[.A.Y u. X~.p.P.^.J._.'.wXyX-X Xd.$X X} <X-X:XgXvXsXsXmXHX Xv.oXGX#XdXfXsXdXiX X Xs.i d g..X&XoX$X:X",
"0XwXwXI.3 > ; u.@XiX0X`.sXfXA.1.q.p.I B T e.8.{ Z.U.I.K :Xi.0 ; * ; @.XXp wXvXD.:.>.=X} x I #XF.! ! ! `.;.s a.7 O o % 0 i. .f <X",
"/...#XI.> X X 3  XtXCXdX' ' ^ ] ^.L z 6 L ^._ ] ^ M.0X0X:X@X; & & : .XkXI.0XN.` / N.rXR z z ~ '.3.G F 3.0X:XyX4.%     * a.<X.X.X",
"#XP.Y.7 X X X > I.P./.0XV.F F / _.R u u P '.{ [ [ G.dXLXKX*X0 % o : %XkXJXfXN.] ] Z.rXP z R |.zXV.F V.V.lXlXDX$X%   . ,  X2XkX,X",
"=.t Y.4 X X $ 3  XI.s Y.`.V.Z.A.-.$.P B P.#XpXvXbXpXqXhXDX:Xo.5 , 9 %XFXyXBXpXbXVXZX~.6.O.l.zXrXaXhX].0XwXiXkXQ.: $ = t.%.&X@X:X",
"Y.I.P.I.3 5 s. X:X#X0XfX].W.G.A.;.;.a.a.r.u.B jX`.,.Z Y T.f | .X X| .X%Xr.=.Y ( pX`.6.O.6.d.o.s U.L.B B V @.o.a.r.%.%.t.9 o.} s ",
"B P.s I.s. X>XiXY.B `.3.F J ] ].@Xt.j p | u.W.B.' ' ! ~.s d.4XPX>Xo.~.;./.! ' ` B.fX0X} i p i.;./.C C <.;.5.d r.v.g.g..Xo.t ;.g ",
"/.L.L.;.t ~.tXtX2.E.U./ J H H ^ =.%XXXh.4.T.V.J ` [ D.0X).X.@XFX4Xf =XqXaXfX[ ` ' V.L.$X4.@.5.V L.H.C E.jXY.Y.i.i I. Xg.A ;.T.A ",
"jXD.Z U.! $XaX`.C ! pX].` H H J J.#XQ.4.4.5.F J ` W.sX1.! B @XmXSX~./.:.7.bX{.` J J T.2.5 3 5.A N D F W.W.L.Z u.;.o.d.d.t s Y u."
};
